HIERARCHY
ROOT Hips
{
	OFFSET 0.000000 0.000000 0.000000
	CHANNELS 6 Xposition Yposition Zposition Zrotation Yrotation Xrotation 
	JOINT LHipJoint
	{
		OFFSET 0.000000 0.000000 0.000000
		CHANNELS 3 Zrotation Yrotation Xrotation
		JOINT LeftUpLeg
		{
			OFFSET 1.363060 -1.794630 0.839290
			CHANNELS 3 Zrotation Yrotation Xrotation
			JOINT LeftLeg
			{
				OFFSET 2.448110 -6.726130 0.000000
				CHANNELS 3 Zrotation Yrotation Xrotation
				JOINT LeftFoot
				{
					OFFSET 2.562200 -7.039590 0.000000
					CHANNELS 3 Zrotation Yrotation Xrotation
					JOINT LeftToeBase
					{
						OFFSET 0.157640 -0.433110 2.322550
						CHANNELS 3 Zrotation Yrotation Xrotation
						End Site
						{
							OFFSET 0.000000 0.000000 0.000000
						}
					}
				}
			}
		}
	}
	JOINT RHipJoint
	{
		OFFSET 0.000000 0.000000 0.000000
		CHANNELS 3 Zrotation Yrotation Xrotation
		JOINT RightUpLeg
		{
			OFFSET -1.305520 -1.794630 0.839290
			CHANNELS 3 Zrotation Yrotation Xrotation
			JOINT RightLeg
			{
				OFFSET -2.542530 -6.985550 0.000000
				CHANNELS 3 Zrotation Yrotation Xrotation
				JOINT RightFoot
				{
					OFFSET -2.568260 -7.056230 0.000000
					CHANNELS 3 Zrotation Yrotation Xrotation
					JOINT RightToeBase
					{
						OFFSET -0.164730 -0.452590 2.363150
						CHANNELS 3 Zrotation Yrotation Xrotation
						End Site
						{
							OFFSET 0.000000 0.000000 0.000000
						}
					}
				}
			}
		}
	}
}
MOTION
Frames: 25
Frame Time: 0.008333
-20.510962 16.074548 -3.748442 -158.752749 88.412997 -130.518924 -13.263787 2.942937 -2.120985 0.119304 9.148712 -2.623333 -1.143144 0.816050 16.656675 1.068767 7.300645 5.109130 1.386300 0.000000 -85.070400 6.960329 1.207359 3.962187 0.729326 12.112651 -64.405795 1.000168 -2.222969 36.984145 -0.966776 -2.897442 -3.130300 -0.862200 0.000000 -32.075000
-20.285081 16.103142 -3.715368 -156.863475 88.335946 -128.644390 -13.425411 2.955918 -2.053062 0.531519 8.871855 -3.593974 -0.907535 1.046050 19.216998 1.184955 7.690909 7.899848 1.741501 -0.000000 -85.371600 6.846844 1.137444 3.892313 1.046420 12.503879 -63.792377 0.920616 -2.239019 37.856155 -1.052744 -3.221104 -3.591865 -0.860000 0.000000 -31.567001
-20.060706 16.135393 -3.680232 -155.376799 88.296247 -127.179525 -13.555968 2.935665 -1.984719 0.843564 8.589178 -4.728390 -0.677592 1.251439 22.008397 1.330267 8.111041 10.646081 2.110600 0.000001 -84.208100 6.757973 1.064885 3.821071 1.401770 12.804907 -63.099115 0.876607 -2.246378 38.565609 -1.121925 -3.431834 -4.211031 -0.823500 -0.000001 -31.288200
-19.838081 16.170947 -3.643084 -154.235124 88.302463 -126.065936 -13.651337 2.882332 -1.917750 1.039032 8.305402 -6.018815 -0.466696 1.429851 25.009800 1.497133 8.579436 13.196523 2.491700 0.000000 -81.533600 6.696713 0.990576 3.750103 1.782505 13.011614 -62.326195 0.865530 -2.245987 39.108571 -1.172219 -3.523979 -4.954472 -0.756200 0.000000 -31.216300
-19.617444 16.209582 -3.604179 -153.361650 88.359092 -125.227358 -13.710683 2.799436 -1.857218 1.110437 8.034620 -7.455441 -0.285046 1.585248 28.191792 1.674066 9.115388 15.404881 2.885400 -0.000000 -77.506800 6.663457 0.914328 3.681434 2.175502 13.126554 -61.473271 0.883851 -2.237954 39.481062 -1.202534 -3.499062 -5.779805 -0.665300 0.000000 -31.319600
-19.399337 16.251123 -3.563915 -152.661368 88.467228 -124.569607 -13.736239 2.692936 -1.809721 1.057687 7.794388 -9.025249 -0.135937 1.726148 31.512740 1.849658 9.738962 17.161138 3.294000 0.000000 -72.514299 6.656364 0.835083 3.617025 2.568155 13.158204 -60.539769 0.927505 -2.221765 39.679015 -1.212865 -3.365332 -6.641298 -0.560599 -0.000000 -31.556900
-19.183682 16.295524 -3.522719 -152.027432 88.625266 -123.987767 -13.732625 2.569024 -1.780876 0.886615 7.597568 -10.710232 -0.015002 1.861893 34.918183 2.016498 10.470311 18.412929 3.720900 -0.000000 -67.128700 6.671764 0.751616 3.558093 2.948760 13.119901 -59.524321 0.991909 -2.196463 39.699767 -1.204630 -3.138419 -7.494954 -0.451900 -0.000000 -31.878300
-18.970789 16.342740 -3.481227 -151.305908 88.827820 -123.328006 -13.707356 2.431255 -1.774678 0.608739 7.450636 -12.490622 0.086939 1.999537 38.351220 2.171434 11.317300 19.155254 4.163000 -0.000001 -61.865000 6.702981 0.661867 3.504992 3.308192 13.029308 -58.427766 1.072545 -2.160901 39.542255 -1.180723 -2.840502 -8.303053 -0.348201 0.000000 -32.229999
-18.760697 16.392821 -3.440018 -150.333650 89.068625 -122.427377 -13.667604 2.280965 -1.791598 0.236375 7.349436 -14.342929 0.180232 2.141687 41.749599 2.315696 12.280752 19.426560 4.613900 0.000000 -57.202200 6.743263 0.564379 3.457538 3.637313 12.904351 -57.250228 1.164847 -2.113863 39.207173 -1.145071 -2.497183 -9.037776 -0.255900 0.000000 -32.558300
-18.553068 16.445774 -3.399659 -148.870693 89.338367 -121.044858 -13.621213 2.116246 -1.830852 -0.213965 7.287296 -16.246045 0.273202 2.287496 45.058332 2.451024 13.339472 19.271180 5.054400 0.000000 -53.327700 6.784268 0.456796 3.415456 3.929766 12.763549 -55.994300 1.264794 -2.054480 38.697127 -1.102594 -2.136780 -9.682063 -0.178400 -0.000000 -32.817000
-18.347806 16.501483 -3.360658 -146.561363 89.623173 -118.823330 -13.575556 1.932697 -1.890459 -0.723000 7.256397 -18.181965 0.371389 2.433351 48.228856 2.577869 14.451824 18.722670 5.451501 -0.000000 -50.125100 6.817201 0.335250 3.378991 4.182106 12.623300 -54.662596 1.369375 -1.982548 38.015482 -1.058622 -1.787201 -10.230171 -0.116400 0.000000 -32.968900
-18.144371 16.559911 -3.323353 -142.912629 89.904728 -115.267893 -13.534103 1.723057 -1.963591 -1.272796 7.233384 -20.127398 0.478910 2.569751 51.198102 2.700343 15.592269 17.879448 5.792600 0.000000 -47.934900 6.835927 0.195156 3.349053 4.391785 12.494476 -53.258839 1.476658 -1.899034 37.164674 -1.018126 -1.472987 -10.684175 -0.068900 -0.000000 -32.998900
-17.942586 16.620738 -3.288030 42.899481 89.848437 70.447685 -13.495117 1.477334 -2.047150 -1.836671 7.206062 -22.069275 0.597296 2.687424 53.933587 2.814820 16.692801 16.756452 6.034500 -0.000000 -46.281100 6.838436 0.028584 3.328221 4.564366 12.383998 -51.786682 1.586846 -1.807299 36.146376 -0.985919 -1.215823 -11.054638 -0.033200 -0.000000 -32.896600
-17.741484 16.683553 -3.254795 51.979866 89.681124 79.431762 -13.438677 1.186222 -2.136328 -2.385758 7.151364 -23.992794 0.726986 2.773073 56.399812 2.919458 17.702372 15.411259 6.155300 -0.000000 -45.016200 6.839898 -0.168152 3.320655 4.711404 12.292766 -50.250891 1.701579 -1.713098 34.958446 -0.965502 -1.031269 -11.353251 -0.006900 -0.000000 -32.677500
-17.540788 16.747930 -3.223452 65.341480 89.642931 92.699721 -13.317792 0.857603 -2.226715 -2.885731 7.052511 -25.885857 0.862021 2.819046 58.565936 3.012521 18.581460 13.920222 6.151201 0.000000 -44.121500 6.884250 -0.379139 3.330338 4.857400 12.225319 -48.650702 1.821493 -1.620293 33.597400 -0.958346 -0.927337 -11.588262 0.012600 0.000000 -32.370200
-17.340038 16.813176 -3.193828 82.457665 89.767372 109.733592 -13.080554 0.539572 -2.316005 -3.308188 6.922640 -27.754127 0.981880 2.844140 60.409858 3.090840 19.294429 12.344553 6.024800 0.000000 -43.441900 7.027363 -0.550619 3.351309 5.035375 12.201818 -46.982085 1.941214 -1.519832 32.070730 -0.961801 -0.896357 -11.757962 0.026900 -0.000001 -32.020500
-17.138476 16.878623 -3.165499 -80.015067 89.964082 -52.809082 -12.747159 0.301344 -2.393962 -3.666163 6.794427 -29.606681 1.059138 2.890746 61.905227 3.151987 19.822661 10.740508 5.790300 0.000001 -42.765500 7.262968 -0.626032 3.363575 5.249823 12.235667 -45.230639 2.048664 -1.386774 30.406058 -0.968019 -0.907056 -11.851144 0.036900 0.000000 -31.677500
-16.935855 16.943375 -3.138028 -65.568066 89.618113 -38.422321 -12.408682 0.154993 -2.444748 -4.003316 6.668963 -31.442858 1.087342 2.976944 63.039608 3.196263 20.171879 9.173438 5.478500 0.000000 -42.062200 7.510285 -0.614429 3.349756 5.466140 12.294164 -43.396380 2.137904 -1.207887 28.638362 -0.969153 -0.922438 -11.862937 0.042700 0.000000 -31.399900
-16.731782 17.006582 -3.110982 -54.850980 89.276063 -27.765009 -12.122512 0.060480 -2.458833 -4.345911 6.517230 -33.249111 1.080442 3.083715 63.828110 3.225209 20.360556 7.689824 5.122200 0.000000 -41.271800 7.711788 -0.566069 3.308199 5.655366 12.317080 -41.491108 2.213760 -0.993755 26.788346 -0.960878 -0.919140 -11.796628 0.044200 -0.000000 -31.232900
-16.526182 17.067381 -3.083924 -46.640736 88.986633 -19.623815 -11.887096 -0.012095 -2.434734 -4.698557 6.318932 -35.011072 1.050579 3.189552 64.298254 3.241463 20.417187 6.315607 4.750300 0.000000 -40.324500 7.866841 -0.511897 3.242585 5.813162 12.256648 -39.527840 2.282373 -0.760471 24.873649 -0.940027 -0.880922 -11.654691 0.041000 0.000000 -31.210300
-16.319060 17.124837 -3.056527 -39.434055 88.755742 -12.499614 -11.685431 -0.068394 -2.374297 -5.063768 6.072755 -36.723757 1.001507 3.287078 64.475380 3.249048 20.378520 5.067027 4.388101 0.000000 -39.278600 7.992232 -0.457294 3.152857 5.944203 12.084819 -37.523087 2.346752 -0.518118 22.921228 -0.903417 -0.791504 -11.439741 0.033300 -0.000000 -31.339700
-16.110526 17.178158 -3.028648 -31.620420 88.557965 -4.785632 -11.513766 -0.100327 -2.279901 -5.451014 5.792351 -38.383258 0.931116 3.381046 64.379095 3.252018 20.279082 3.937817 4.048400 0.000000 -38.163800 8.092773 -0.397624 3.034381 6.048838 11.787227 -35.491271 2.407505 -0.270651 20.967776 -0.848129 -0.634239 -11.156302 0.022000 -0.000000 -31.607000
-15.900482 17.226606 -3.000231 -21.002630 88.350166 5.708866 -11.405770 -0.103519 -2.151270 -5.884759 5.493767 -39.980960 0.834879 3.482068 64.017294 3.254515 20.150468 2.914627 3.737600 0.000000 -37.068199 8.134578 -0.334631 2.878448 6.109886 11.355724 -33.444764 2.465050 -0.018014 19.057514 -0.772244 -0.393831 -10.814682 0.008399 -0.000000 -31.997700
-15.689326 17.269547 -2.971546 -4.388402 88.160230 22.172003 -11.461930 -0.146923 -1.986367 -6.405067 5.151569 -41.494146 0.723084 3.571834 63.398866 3.258828 20.009180 1.967841 3.451000 0.000000 -36.024600 8.010730 -0.327793 2.684852 6.079414 10.770441 -31.410284 2.526036 0.228794 17.222028 -0.680147 -0.075361 -10.447843 -0.005099 -0.000000 -32.442600
-15.477296 17.306526 -2.942874 21.350391 88.281904 47.726741 -11.637540 -0.439492 -1.812069 -6.974777 4.642318 -42.850659 0.659075 3.515471 62.581175 3.262266 19.849360 1.076748 3.184100 0.000000 -35.098700 7.760235 -0.519629 2.509860 5.973630 9.976709 -29.444576 2.601604 0.400809 15.421236 -0.594349 0.238786 -10.114501 -0.016600 0.000000 -32.927000
